<mxfile host="app.diagrams.net" modified="2024-03-01T18:50:52.714Z" agent="Mozilla/5.0 (Macintosh; Intel Mac OS X 10_15_7) AppleWebKit/537.36 (KHTML, like Gecko) Chrome/122.0.0.0 Safari/537.36" etag="qgSifle7szBJY0chE4YY" version="21.8.2" type="github">
  <diagram name="Page-1" id="cg3dcYYP5vr0YEX1CStQ">
    <mxGraphModel dx="909" dy="577" grid="1" gridSize="10" guides="1" tooltips="1" connect="1" arrows="1" fold="1" page="1" pageScale="1" pageWidth="850" pageHeight="1100" math="0" shadow="0">
      <root>
        <mxCell id="0" />
        <mxCell id="1" parent="0" />
        <mxCell id="a-hP4gY9XRY7YkC8XOCH-5" value="" style="rounded=0;whiteSpace=wrap;html=1;fillColor=#d5e8d4;strokeColor=#82b366;gradientColor=#97d077;" vertex="1" parent="1">
          <mxGeometry x="70" y="380" width="900" height="550" as="geometry" />
        </mxCell>
        <mxCell id="a-hP4gY9XRY7YkC8XOCH-9" value="Formations" style="rounded=1;whiteSpace=wrap;html=1;fillColor=#dae8fc;strokeColor=#6c8ebf;" vertex="1" parent="1">
          <mxGeometry x="80" y="820" width="130" height="100" as="geometry" />
        </mxCell>
        <mxCell id="a-hP4gY9XRY7YkC8XOCH-11" value="RW" style="ellipse;whiteSpace=wrap;html=1;fillColor=#e51400;strokeColor=#B20000;fontColor=#ffffff;" vertex="1" parent="1">
          <mxGeometry x="650" y="440" width="80" height="60" as="geometry" />
        </mxCell>
        <mxCell id="a-hP4gY9XRY7YkC8XOCH-22" value="LW" style="ellipse;whiteSpace=wrap;html=1;fillColor=#e51400;strokeColor=#B20000;fontColor=#ffffff;" vertex="1" parent="1">
          <mxGeometry x="290" y="440" width="80" height="60" as="geometry" />
        </mxCell>
        <mxCell id="a-hP4gY9XRY7YkC8XOCH-23" value="CM" style="ellipse;whiteSpace=wrap;html=1;fillColor=#008a00;fontColor=#ffffff;strokeColor=#005700;" vertex="1" parent="1">
          <mxGeometry x="590" y="570" width="80" height="60" as="geometry" />
        </mxCell>
        <mxCell id="a-hP4gY9XRY7YkC8XOCH-24" value="CDM" style="ellipse;whiteSpace=wrap;html=1;fillColor=#008a00;strokeColor=#005700;fontColor=#ffffff;" vertex="1" parent="1">
          <mxGeometry x="470" y="610" width="80" height="60" as="geometry" />
        </mxCell>
        <mxCell id="a-hP4gY9XRY7YkC8XOCH-25" value="CM" style="ellipse;whiteSpace=wrap;html=1;fillColor=#008a00;fontColor=#ffffff;strokeColor=#005700;" vertex="1" parent="1">
          <mxGeometry x="350" y="570" width="80" height="60" as="geometry" />
        </mxCell>
        <mxCell id="a-hP4gY9XRY7YkC8XOCH-26" value="LB" style="ellipse;whiteSpace=wrap;html=1;fillColor=#0050ef;fontColor=#ffffff;strokeColor=#001DBC;" vertex="1" parent="1">
          <mxGeometry x="290" y="730" width="80" height="60" as="geometry" />
        </mxCell>
        <mxCell id="a-hP4gY9XRY7YkC8XOCH-27" value="RB" style="ellipse;whiteSpace=wrap;html=1;fillColor=#0050ef;fontColor=#ffffff;strokeColor=#001DBC;" vertex="1" parent="1">
          <mxGeometry x="650" y="730" width="80" height="60" as="geometry" />
        </mxCell>
        <mxCell id="a-hP4gY9XRY7YkC8XOCH-28" value="CB" style="ellipse;whiteSpace=wrap;html=1;fillColor=#0050ef;fontColor=#ffffff;strokeColor=#001DBC;" vertex="1" parent="1">
          <mxGeometry x="410" y="730" width="80" height="60" as="geometry" />
        </mxCell>
        <mxCell id="a-hP4gY9XRY7YkC8XOCH-29" value="CB" style="ellipse;whiteSpace=wrap;html=1;fillColor=#0050ef;fontColor=#ffffff;strokeColor=#001DBC;" vertex="1" parent="1">
          <mxGeometry x="530" y="730" width="80" height="60" as="geometry" />
        </mxCell>
        <mxCell id="a-hP4gY9XRY7YkC8XOCH-30" value="GK" style="ellipse;whiteSpace=wrap;html=1;fillColor=#e3c800;fontColor=#000000;strokeColor=#B09500;" vertex="1" parent="1">
          <mxGeometry x="470" y="820" width="80" height="60" as="geometry" />
        </mxCell>
        <mxCell id="a-hP4gY9XRY7YkC8XOCH-31" value="ST" style="ellipse;whiteSpace=wrap;html=1;fillColor=#e51400;strokeColor=#B20000;fontColor=#ffffff;" vertex="1" parent="1">
          <mxGeometry x="470" y="410" width="80" height="60" as="geometry" />
        </mxCell>
        <mxCell id="a-hP4gY9XRY7YkC8XOCH-32" value="Sats" style="rounded=1;whiteSpace=wrap;html=1;fillColor=#dae8fc;strokeColor=#6c8ebf;" vertex="1" parent="1">
          <mxGeometry x="80" y="680" width="130" height="100" as="geometry" />
        </mxCell>
        <mxCell id="a-hP4gY9XRY7YkC8XOCH-33" value="Training Plan" style="rounded=1;whiteSpace=wrap;html=1;fillColor=#dae8fc;strokeColor=#6c8ebf;" vertex="1" parent="1">
          <mxGeometry x="80" y="530" width="130" height="100" as="geometry" />
        </mxCell>
        <mxCell id="a-hP4gY9XRY7YkC8XOCH-34" value="Transfer" style="rounded=1;whiteSpace=wrap;html=1;fillColor=#dae8fc;strokeColor=#6c8ebf;" vertex="1" parent="1">
          <mxGeometry x="80" y="390" width="130" height="100" as="geometry" />
        </mxCell>
        <mxCell id="a-hP4gY9XRY7YkC8XOCH-51" value="Start" style="rounded=1;whiteSpace=wrap;html=1;" vertex="1" parent="1">
          <mxGeometry x="800" y="840" width="120" height="60" as="geometry" />
        </mxCell>
        <mxCell id="a-hP4gY9XRY7YkC8XOCH-53" value="" style="whiteSpace=wrap;html=1;aspect=fixed;" vertex="1" parent="1">
          <mxGeometry x="910" y="390" width="50" height="50" as="geometry" />
        </mxCell>
        <mxCell id="a-hP4gY9XRY7YkC8XOCH-56" value="" style="whiteSpace=wrap;html=1;aspect=fixed;" vertex="1" parent="1">
          <mxGeometry x="810" y="490" width="50" height="50" as="geometry" />
        </mxCell>
        <mxCell id="a-hP4gY9XRY7YkC8XOCH-57" value="" style="whiteSpace=wrap;html=1;aspect=fixed;" vertex="1" parent="1">
          <mxGeometry x="810" y="440" width="50" height="50" as="geometry" />
        </mxCell>
        <mxCell id="a-hP4gY9XRY7YkC8XOCH-58" value="Game" style="whiteSpace=wrap;html=1;aspect=fixed;" vertex="1" parent="1">
          <mxGeometry x="860" y="490" width="50" height="50" as="geometry" />
        </mxCell>
        <mxCell id="a-hP4gY9XRY7YkC8XOCH-59" value="" style="whiteSpace=wrap;html=1;aspect=fixed;" vertex="1" parent="1">
          <mxGeometry x="860" y="440" width="50" height="50" as="geometry" />
        </mxCell>
        <mxCell id="a-hP4gY9XRY7YkC8XOCH-60" value="Game" style="whiteSpace=wrap;html=1;aspect=fixed;" vertex="1" parent="1">
          <mxGeometry x="810" y="390" width="50" height="50" as="geometry" />
        </mxCell>
        <mxCell id="a-hP4gY9XRY7YkC8XOCH-61" value="" style="whiteSpace=wrap;html=1;aspect=fixed;" vertex="1" parent="1">
          <mxGeometry x="860" y="390" width="50" height="50" as="geometry" />
        </mxCell>
        <mxCell id="a-hP4gY9XRY7YkC8XOCH-62" value="" style="whiteSpace=wrap;html=1;aspect=fixed;" vertex="1" parent="1">
          <mxGeometry x="910" y="490" width="50" height="50" as="geometry" />
        </mxCell>
        <mxCell id="a-hP4gY9XRY7YkC8XOCH-63" value="" style="whiteSpace=wrap;html=1;aspect=fixed;" vertex="1" parent="1">
          <mxGeometry x="910" y="440" width="50" height="50" as="geometry" />
        </mxCell>
      </root>
    </mxGraphModel>
  </diagram>
</mxfile>
